<?xml version="1.0" encoding="UTF-8"?>
<svg width="129px" height="112px" viewBox="0 0 129 112" version="1.1" xmlns="http://www.w3.org/2000/svg" xmlns:xlink="http://www.w3.org/1999/xlink">
    <!-- Generator: Sketch 51.2 (57519) - http://www.bohemiancoding.com/sketch -->
    <title>Group 56</title>
    <desc>Created with Sketch.</desc>
    <defs>
        <path d="M20.482,6.941 C4.219,20.22 -4.633,36.191 4.871,51.048 C14.376,65.906 32.807,66.038 49.706,61.036 C66.605,56.034 70.659,33.691 61.154,18.834 C54.726,8.786 45.829,0.817 35.712,0.817 C30.869,0.817 25.747,2.643 20.482,6.941" id="path-1"></path>
        <linearGradient x1="7.83433232%" y1="82.4848138%" x2="91.4960403%" y2="27.2359422%" id="linearGradient-3">
            <stop stop-color="#FFA32F" offset="0%"></stop>
            <stop stop-color="#EF7279" offset="100%"></stop>
        </linearGradient>
        <path d="M57.181,0.716 C24.984,4.507 0.182,18.102 0.182,45.716 C0.182,73.33 24.042,89.055 50.181,96.716 C76.321,104.378 100.182,78.33 100.182,50.715 C100.182,24.906 90.74,0.351 63.215,0.349 C61.292,0.349 59.284,0.468 57.181,0.716" id="path-4"></path>
        <linearGradient x1="-0.0007551%" y1="50.0001414%" x2="99.9992449%" y2="50.0001414%" id="linearGradient-6">
            <stop stop-color="#57F0FF" offset="0%"></stop>
            <stop stop-color="#42A1FF" offset="100%"></stop>
        </linearGradient>
        <path d="M8.563,0.562 C4.482,2.003 0.713,4.077 0.713,8.412 C0.713,12.747 3.44,15.854 7.464,16.262 C11.488,16.669 15.116,13.638 16.413,9.511 C18.113,4.102 14.182,0.26 10.361,0.26 C9.751,0.26 9.144,0.357 8.563,0.562" id="path-7"></path>
        <linearGradient x1="10.7030058%" y1="16.6445661%" x2="88.9999616%" y2="80.5946704%" id="linearGradient-9">
            <stop stop-color="#9C95FF" offset="0%"></stop>
            <stop stop-color="#756DE8" offset="100%"></stop>
        </linearGradient>
        <path d="M3.521,9.288 C0.058,16.016 -2.08,22.428 3.243,23.742 C9.428,25.268 9.772,17.85 19.459,16.472 C31.701,14.729 33.74,3.133 20.788,0.25 C19.98,0.109 19.156,0.039 18.327,0.039 C12.562,0.039 6.549,3.405 3.521,9.288" id="path-10"></path>
        <linearGradient x1="54.2299249%" y1="98.3615945%" x2="43.9106084%" y2="-0.721194757%" id="linearGradient-12">
            <stop stop-color="#9C95FF" offset="0%"></stop>
            <stop stop-color="#756DE8" offset="100%"></stop>
        </linearGradient>
        <path d="M26.447,11.915 C19.764,15.255 8.434,15.442 0.078,17.37 C6.007,20.367 12.421,22.796 18.978,24.719 C22.141,25.647 25.271,26.071 28.329,26.067 C31.33,24.817 34.146,23.345 36.607,21.645 C47.051,14.431 53.077,5.841 49.494,1.449 C48.828,0.632 48.022,0.277 47.075,0.277 C42.923,0.276 36.063,7.108 26.447,11.915" id="path-13"></path>
        <linearGradient x1="44.8376314%" y1="18.7504829%" x2="63.7929185%" y2="92.9346528%" id="linearGradient-15">
            <stop stop-color="#756DE8" offset="0%"></stop>
            <stop stop-color="#9C95FF" offset="100%"></stop>
        </linearGradient>
        <polygon id="path-16" points="0 0.0256786939 6.6643772 0.0256786939 6.6643772 6.44508456 0 6.44508456"></polygon>
        <polygon id="path-18" points="0.3624 0.5211 8.362 0.5211 8.362 8.5211 0.3624 8.5211"></polygon>
        <path d="M62.252,39.043 C63.1,39.552 63.948,40.4 64.457,41.418 C66.832,44.98 65.814,50.069 62.082,52.444 L12.038,83.658 C10.85,84.337 9.493,84.846 7.966,84.846 C3.725,84.846 0.333,81.453 0.333,77.212 L0.333,0.025 L1.181,0.534 C6.1,4.605 9.663,9.864 11.868,15.802 C12.886,18.177 13.565,20.722 13.904,23.267 L13.904,64.319 C13.904,64.659 14.073,64.998 14.243,65.337 C14.921,66.186 15.94,66.355 16.788,65.847 L46.475,47.864 L46.984,47.355 C47.662,46.168 47.493,44.642 46.305,43.793 L15.77,24.623 C15.431,21.739 14.583,18.855 13.565,15.972 C11.868,11.562 9.493,7.489 6.44,4.097 L47.323,29.204" id="path-20"></path>
        <linearGradient x1="-0.000664662875%" y1="50.0003881%" x2="99.9999482%" y2="50.0003881%" id="linearGradient-22">
            <stop stop-color="#FFFFFF" offset="0%"></stop>
            <stop stop-color="#BDD4FF" offset="100%"></stop>
        </linearGradient>
        <path d="M0.333,77.212 C0.333,81.453 3.725,84.846 7.967,84.846 C9.493,84.846 10.85,84.337 12.038,83.659 L62.082,52.444 C65.814,50.07 66.832,44.98 64.457,41.418 C63.948,40.4 63.1,39.551 62.251,39.043 L47.323,29.204 C52.243,33.276 52.922,40.569 48.849,45.49 C47.435,47.182 46.475,47.865 46.475,47.865 L25.269,60.418 L17.127,66.016 C16.109,66.355 15.091,66.185 14.413,65.337 C14.243,64.998 14.073,64.66 14.073,64.319 L14.073,23.267 C13.565,20.722 12.886,18.176 12.038,15.802 C9.833,9.864 6.27,4.605 1.35,0.535 L0.333,0.025 L0.333,77.212 Z" id="path-23"></path>
    </defs>
    <g id="Page-1" stroke="none" stroke-width="1" fill="none" fill-rule="evenodd">
        <g id="general-homepage-v2-copy" transform="translate(-356.000000, -1388.000000)">
            <g id="Group-56" transform="translate(356.000000, 1387.000000)">
                <g id="Group-3" transform="translate(19.000000, 0.184000)">
                    <mask id="mask-2" fill="white">
                        <use xlink:href="#path-1"></use>
                    </mask>
                    <g id="Clip-2"></g>
                    <path d="M20.482,6.941 C4.219,20.22 -4.633,36.191 4.871,51.048 C14.376,65.906 32.807,66.038 49.706,61.036 C66.605,56.034 70.659,33.691 61.154,18.834 C54.726,8.786 45.829,0.817 35.712,0.817 C30.869,0.817 25.747,2.643 20.482,6.941" id="Fill-1" fill="url(#linearGradient-3)" mask="url(#mask-2)"></path>
                </g>
                <g id="Group-6" transform="translate(10.000000, 9.184000)">
                    <mask id="mask-5" fill="white">
                        <use xlink:href="#path-4"></use>
                    </mask>
                    <g id="Clip-5"></g>
                    <path d="M57.181,0.716 C24.984,4.507 0.182,18.102 0.182,45.716 C0.182,73.33 24.042,89.055 50.181,96.716 C76.321,104.378 100.182,78.33 100.182,50.715 C100.182,24.906 90.74,0.351 63.215,0.349 C61.292,0.349 59.284,0.468 57.181,0.716" id="Fill-4" fill="url(#linearGradient-6)" mask="url(#mask-5)"></path>
                </g>
                <g id="Group-9" transform="translate(95.000000, 86.184000)">
                    <mask id="mask-8" fill="white">
                        <use xlink:href="#path-7"></use>
                    </mask>
                    <g id="Clip-8"></g>
                    <path d="M8.563,0.562 C4.482,2.003 0.713,4.077 0.713,8.412 C0.713,12.747 3.44,15.854 7.464,16.262 C11.488,16.669 15.116,13.638 16.413,9.511 C18.113,4.102 14.182,0.26 10.361,0.26 C9.751,0.26 9.144,0.357 8.563,0.562" id="Fill-7" fill="url(#linearGradient-9)" mask="url(#mask-8)"></path>
                </g>
                <g id="Group-12" transform="translate(97.000000, 58.184000)">
                    <mask id="mask-11" fill="white">
                        <use xlink:href="#path-10"></use>
                    </mask>
                    <g id="Clip-11"></g>
                    <path d="M3.521,9.288 C0.058,16.016 -2.08,22.428 3.243,23.742 C9.428,25.268 9.772,17.85 19.459,16.472 C31.701,14.729 33.74,3.133 20.788,0.25 C19.98,0.109 19.156,0.039 18.327,0.039 C12.562,0.039 6.549,3.405 3.521,9.288" id="Fill-10" fill="url(#linearGradient-12)" mask="url(#mask-11)"></path>
                </g>
                <g id="Group-15" transform="translate(41.000000, 81.184000)">
                    <mask id="mask-14" fill="white">
                        <use xlink:href="#path-13"></use>
                    </mask>
                    <g id="Clip-14"></g>
                    <path d="M26.447,11.915 C19.764,15.255 8.434,15.442 0.078,17.37 C6.007,20.367 12.421,22.796 18.978,24.719 C22.141,25.647 25.271,26.071 28.329,26.067 C31.33,24.817 34.146,23.345 36.607,21.645 C47.051,14.431 53.077,5.841 49.494,1.449 C48.828,0.632 48.022,0.277 47.075,0.277 C42.923,0.276 36.063,7.108 26.447,11.915" id="Fill-13" fill="url(#linearGradient-15)" mask="url(#mask-14)"></path>
                </g>
                <g id="Group-27" transform="translate(0.000000, 13.184000)">
                    <g id="Group-18">
                        <mask id="mask-17" fill="white">
                            <use xlink:href="#path-16"></use>
                        </mask>
                        <g id="Clip-17"></g>
                        <path d="M5.4068,0.9795 L6.5948,4.6365 C6.9248,5.6505 6.0298,6.6385 4.9888,6.4125 L1.0878,5.5615 C0.0308,5.3315 -0.3632,4.0315 0.3888,3.2535 L3.1018,0.4475 C3.8248,-0.3015 5.0848,-0.0095 5.4068,0.9795" id="Fill-16" fill="#4FDC6F" mask="url(#mask-17)"></path>
                    </g>
                    <g id="Group-21" transform="translate(120.000000, 22.000000)">
                        <mask id="mask-19" fill="white">
                            <use xlink:href="#path-18"></use>
                        </mask>
                        <g id="Clip-20"></g>
                        <path d="M4.3624,2.4521 C3.2584,2.4521 2.3624,3.3471 2.3624,4.4521 C2.3624,5.5561 3.2584,6.4521 4.3624,6.4521 C5.4664,6.4521 6.3624,5.5561 6.3624,4.4521 C6.3624,3.3471 5.4664,2.4521 4.3624,2.4521 M4.3624,8.5211 C2.1534,8.5211 0.3624,6.7301 0.3624,4.5211 C0.3624,2.3121 2.1534,0.5211 4.3624,0.5211 C6.5714,0.5211 8.3624,2.3121 8.3624,4.5211 C8.3624,6.7301 6.5714,8.5211 4.3624,8.5211" id="Fill-19" fill="#F7CF06" mask="url(#mask-19)"></path>
                    </g>
                    <path d="M8.3624,17.0049 C9.4664,17.0049 10.3624,17.9009 10.3624,19.0049 C10.3624,20.1089 9.4664,21.0049 8.3624,21.0049 C7.2584,21.0049 6.3624,20.1089 6.3624,19.0049 C6.3624,17.9009 7.2584,17.0049 8.3624,17.0049" id="Fill-22" fill="#F37C6A"></path>
                    <g id="Group-26" transform="translate(36.000000, 0.000000)">
                        <mask id="mask-21" fill="white">
                            <use xlink:href="#path-20"></use>
                        </mask>
                        <g id="Clip-25"></g>
                        <path d="M62.252,39.043 L47.323,29.204 L6.44,4.097 C9.493,7.489 11.868,11.562 13.565,15.972 C14.583,18.855 15.431,21.739 15.77,24.623 L46.305,43.793 C47.493,44.642 47.662,46.168 46.984,47.355 L46.475,47.864 L16.788,65.847 C15.94,66.355 14.921,66.186 14.243,65.337 C14.073,64.998 13.904,64.659 13.904,64.319 L13.904,23.267 C13.565,20.722 12.886,18.177 11.868,15.802 C9.663,9.864 6.1,4.605 1.181,0.534 L0.333,0.025 L0.333,77.212 C0.333,81.453 3.725,84.846 7.966,84.846 C9.493,84.846 10.85,84.337 12.038,83.658 L62.082,52.444 C65.814,50.069 66.832,44.98 64.457,41.418 C63.948,40.4 63.1,39.552 62.252,39.043" id="Fill-24" fill="url(#linearGradient-22)" mask="url(#mask-21)"></path>
                    </g>
                </g>
                <g id="Group-30" transform="translate(36.000000, 13.184000)">
                    <mask id="mask-24" fill="white">
                        <use xlink:href="#path-23"></use>
                    </mask>
                    <g id="Clip-29"></g>
                    <path d="M0.333,77.212 C0.333,81.453 3.725,84.846 7.967,84.846 C9.493,84.846 10.85,84.337 12.038,83.659 L62.082,52.444 C65.814,50.07 66.832,44.98 64.457,41.418 C63.948,40.4 63.1,39.551 62.251,39.043 L47.323,29.204 C52.243,33.276 52.922,40.569 48.849,45.49 C47.435,47.182 46.475,47.865 46.475,47.865 L25.269,60.418 L17.127,66.016 C16.109,66.355 15.091,66.185 14.413,65.337 C14.243,64.998 14.073,64.66 14.073,64.319 L14.073,23.267 C13.565,20.722 12.886,18.176 12.038,15.802 C9.833,9.864 6.27,4.605 1.35,0.535 L0.333,0.025 L0.333,77.212 Z" id="Fill-28" fill="url(#linearGradient-22)" mask="url(#mask-24)"></path>
                </g>
                <g id="Group-55" transform="translate(29.000000, 5.184000)" fill="#387DFF">
                    <path d="M16.7931,79.1455 C16.7441,79.1455 16.6931,79.1375 16.6431,79.1225 C16.3451,79.0285 16.0361,78.9545 15.7251,78.9025 C15.4531,78.8565 15.2691,78.5985 15.3151,78.3265 C15.3601,78.0545 15.6151,77.8645 15.8911,77.9165 C16.2471,77.9755 16.6011,78.0605 16.9431,78.1685 C17.2071,78.2505 17.3531,78.5325 17.2701,78.7955 C17.2031,79.0085 17.0061,79.1455 16.7931,79.1455 Z M10.9261,79.8055 C10.7541,79.8055 10.5871,79.7165 10.4941,79.5585 C10.3551,79.3205 10.4351,79.0135 10.6731,78.8745 C10.9821,78.6935 11.3071,78.5315 11.6411,78.3935 C11.8961,78.2865 12.1891,78.4095 12.2941,78.6645 C12.3991,78.9185 12.2781,79.2115 12.0231,79.3175 C11.7321,79.4385 11.4481,79.5795 11.1791,79.7375 C11.0991,79.7835 11.0121,79.8055 10.9261,79.8055 Z M20.7311,82.1705 C20.5651,82.1705 20.4041,82.0885 20.3081,81.9395 C20.1411,81.6765 19.9521,81.4225 19.7481,81.1835 C19.5681,80.9735 19.5921,80.6585 19.8021,80.4785 C20.0121,80.2985 20.3281,80.3245 20.5071,80.5335 C20.7421,80.8075 20.9591,81.0995 21.1521,81.4025 C21.3001,81.6345 21.2311,81.9445 20.9991,82.0925 C20.9161,82.1455 20.8221,82.1705 20.7311,82.1705 Z M7.7561,83.6275 C7.7001,83.6275 7.6431,83.6185 7.5871,83.5985 C7.3271,83.5055 7.1921,83.2195 7.2851,82.9585 C7.4061,82.6215 7.5531,82.2875 7.7201,81.9675 C7.8481,81.7235 8.1501,81.6275 8.3961,81.7575 C8.6401,81.8855 8.7341,82.1875 8.6061,82.4325 C8.4601,82.7105 8.3331,83.0005 8.2271,83.2965 C8.1531,83.5005 7.9611,83.6275 7.7561,83.6275 Z M21.7991,87.0875 C21.7761,87.0875 21.7531,87.0855 21.7301,87.0825 C21.4571,87.0445 21.2661,86.7925 21.3041,86.5185 C21.3471,86.2085 21.3691,85.8915 21.3691,85.5785 C21.3691,85.3015 21.5921,85.0415 21.8681,85.0415 C22.1451,85.0415 22.3681,85.2305 22.3681,85.5065 L21.8681,85.5065 L22.3691,85.5685 C22.3691,85.9375 22.3441,86.3005 22.2941,86.6575 C22.2591,86.9075 22.0451,87.0875 21.7991,87.0875 Z M7.7801,88.5935 C7.5771,88.5935 7.3851,88.4685 7.3111,88.2665 C7.1861,87.9295 7.0841,87.5795 7.0081,87.2275 C6.9501,86.9575 7.1221,86.6915 7.3921,86.6325 C7.6661,86.5785 7.9281,86.7475 7.9861,87.0165 C8.0521,87.3235 8.1401,87.6265 8.2491,87.9205 C8.3451,88.1795 8.2121,88.4665 7.9531,88.5625 C7.8961,88.5835 7.8371,88.5935 7.7801,88.5935 Z M19.4711,91.4745 C19.3351,91.4745 19.1991,91.4185 19.1001,91.3095 C18.9151,91.1055 18.9311,90.7895 19.1351,90.6035 C19.3671,90.3945 19.5871,90.1655 19.7911,89.9235 C19.9681,89.7115 20.2851,89.6845 20.4951,89.8625 C20.7071,90.0405 20.7341,90.3555 20.5561,90.5665 C20.3241,90.8425 20.0721,91.1055 19.8061,91.3455 C19.7101,91.4315 19.5901,91.4745 19.4711,91.4745 Z M10.9861,92.3855 C10.9021,92.3855 10.8161,92.3645 10.7381,92.3195 C10.4251,92.1395 10.1231,91.9365 9.8391,91.7155 C9.6211,91.5465 9.5811,91.2325 9.7511,91.0145 C9.9201,90.7965 10.2341,90.7555 10.4521,90.9265 C10.7001,91.1195 10.9641,91.2955 11.2361,91.4525 C11.4761,91.5895 11.5581,91.8955 11.4201,92.1345 C11.3281,92.2955 11.1601,92.3855 10.9861,92.3855 Z M14.8711,93.3415 C14.6031,93.3415 14.3811,93.1285 14.3721,92.8595 C14.3621,92.5835 14.5791,92.3515 14.8551,92.3415 C15.1681,92.3315 15.4821,92.2975 15.7911,92.2435 C16.0661,92.1955 16.3231,92.3755 16.3711,92.6475 C16.4191,92.9195 16.2381,93.1785 15.9661,93.2275 C15.6111,93.2915 15.2491,93.3295 14.8891,93.3415 L14.8711,93.3415 Z" id="Fill-31"></path>
                    <path d="M62.0079,46.417 C61.7979,46.417 61.6029,46.284 61.5329,46.074 C61.4459,45.812 61.5889,45.529 61.8509,45.442 C62.1929,45.329 62.5459,45.236 62.9019,45.167 C63.1709,45.108 63.4349,45.29 63.4889,45.561 C63.5419,45.832 63.3649,46.095 63.0939,46.147 C62.7779,46.21 62.4669,46.292 62.1649,46.392 C62.1129,46.409 62.0599,46.417 62.0079,46.417 M68.0019,46.761 C67.9319,46.761 67.8599,46.746 67.7919,46.714 C67.5029,46.579 67.2029,46.463 66.8959,46.365 C66.6329,46.281 66.4879,46 66.5709,45.736 C66.6549,45.475 66.9379,45.331 67.1999,45.412 C67.5479,45.523 67.8889,45.656 68.2139,45.808 C68.4639,45.924 68.5719,46.222 68.4559,46.472 C68.3709,46.654 68.1909,46.761 68.0019,46.761 M57.9459,49.399 C57.8439,49.399 57.7419,49.369 57.6539,49.305 C57.4289,49.144 57.3789,48.831 57.5409,48.606 C57.7519,48.313 57.9839,48.031 58.2299,47.768 C58.4179,47.566 58.7349,47.555 58.9359,47.742 C59.1379,47.931 59.1499,48.247 58.9609,48.449 C58.7429,48.683 58.5389,48.932 58.3509,49.192 C58.2539,49.327 58.1009,49.399 57.9459,49.399 M71.6999,50.186 C71.5249,50.186 71.3549,50.094 71.2629,49.931 C71.1059,49.65 70.9319,49.381 70.7419,49.123 C70.5779,48.9 70.6249,48.587 70.8479,48.424 C71.0689,48.258 71.3829,48.308 71.5469,48.529 C71.7609,48.82 71.9579,49.125 72.1349,49.44 C72.2709,49.682 72.1849,49.986 71.9449,50.121 C71.8669,50.165 71.7829,50.186 71.6999,50.186 M56.4089,54.185 C56.1329,54.185 55.9089,53.976 55.9089,53.699 L56.4089,53.699 L55.9089,53.69 C55.9089,53.313 55.9309,52.961 55.9719,52.616 C56.0059,52.342 56.2499,52.136 56.5289,52.181 C56.8029,52.214 56.9989,52.463 56.9659,52.737 C56.9279,53.043 56.9089,53.354 56.9089,53.669 C56.9089,53.945 56.6849,54.185 56.4089,54.185 M72.6719,55.191 C72.6519,55.191 72.6309,55.19 72.6099,55.188 C72.3359,55.153 72.1409,54.904 72.1749,54.63 C72.2149,54.314 72.2349,53.994 72.2349,53.669 C72.2349,53.393 72.4579,53.138 72.7349,53.138 C73.0109,53.138 73.2349,53.33 73.2349,53.606 L73.2349,53.669 C73.2349,54.035 73.2119,54.396 73.1679,54.753 C73.1359,55.006 72.9209,55.191 72.6719,55.191 M57.9819,58.986 C57.8279,58.986 57.6759,58.916 57.5779,58.782 C57.3649,58.491 57.1679,58.184 56.9919,57.868 C56.8579,57.626 56.9449,57.322 57.1869,57.188 C57.4269,57.055 57.7329,57.142 57.8659,57.382 C58.0219,57.663 58.1949,57.934 58.3839,58.19 C58.5479,58.413 58.4999,58.727 58.2769,58.89 C58.1879,58.955 58.0839,58.986 57.9819,58.986 M70.5279,59.751 C70.4049,59.751 70.2819,59.706 70.1859,59.616 C69.9839,59.428 69.9739,59.111 70.1619,58.909 C70.3819,58.676 70.5869,58.428 70.7759,58.168 C70.9389,57.944 71.2509,57.896 71.4739,58.058 C71.6969,58.22 71.7469,58.533 71.5839,58.756 C71.3709,59.049 71.1389,59.328 70.8929,59.593 C70.7939,59.698 70.6609,59.751 70.5279,59.751 M62.0659,61.939 C62.0149,61.939 61.9629,61.932 61.9119,61.915 C61.5699,61.805 61.2289,61.671 60.8999,61.517 C60.6499,61.398 60.5419,61.102 60.6589,60.852 C60.7759,60.602 61.0719,60.493 61.3239,60.61 C61.6129,60.746 61.9119,60.864 62.2189,60.964 C62.4819,61.048 62.6259,61.33 62.5419,61.593 C62.4729,61.805 62.2769,61.939 62.0659,61.939 M66.1139,62.187 C65.8789,62.187 65.6699,62.02 65.6239,61.78 C65.5719,61.509 65.7499,61.247 66.0209,61.195 C66.3379,61.135 66.6489,61.055 66.9499,60.955 C67.2159,60.871 67.4959,61.014 67.5809,61.275 C67.6669,61.537 67.5239,61.82 67.2619,61.906 C66.9169,62.019 66.5629,62.11 66.2089,62.178 C66.1769,62.184 66.1449,62.187 66.1139,62.187" id="Fill-33"></path>
                    <path d="M50.0729,52.6631 C49.9419,52.6631 49.8109,52.6111 49.7129,52.5101 C49.5209,52.3101 49.5279,51.9941 49.7259,51.8031 C50.0169,51.5231 50.3529,51.3081 50.7269,51.1611 C50.9839,51.0591 51.2739,51.1861 51.3749,51.4441 C51.4759,51.7011 51.3489,51.9921 51.0919,52.0931 C50.8409,52.1901 50.6149,52.3361 50.4199,52.5231 C50.3229,52.6171 50.1979,52.6631 50.0729,52.6631 M54.1679,55.4621 C54.1039,55.4621 54.0389,55.4491 53.9759,55.4241 C53.7209,55.3171 53.5999,55.0241 53.7069,54.7691 C53.8099,54.5221 53.8619,54.2601 53.8619,53.9881 C53.8629,53.7381 53.8179,53.4951 53.7299,53.2651 C53.6319,53.0061 53.7609,52.7171 54.0189,52.6191 C54.2739,52.5201 54.5649,52.6481 54.6639,52.9071 C54.7959,53.2531 54.8629,53.6171 54.8619,53.9891 C54.8619,54.3921 54.7839,54.7841 54.6299,55.1541 C54.5499,55.3471 54.3639,55.4621 54.1679,55.4621 M50.8369,56.8191 C50.7719,56.8191 50.7049,56.8071 50.6409,56.7791 C50.2709,56.6221 49.9409,56.3951 49.6599,56.1081 C49.4669,55.9111 49.4699,55.5941 49.6679,55.4011 C49.8649,55.2081 50.1829,55.2121 50.3749,55.4091 C50.5629,55.6021 50.7849,55.7541 51.0329,55.8591 C51.2869,55.9681 51.4059,56.2611 51.2969,56.5161 C51.2159,56.7051 51.0309,56.8191 50.8369,56.8191" id="Fill-35"></path>
                    <path d="M14.4903,13.583 C14.3443,13.583 14.1983,13.519 14.0993,13.396 L13.7863,13.011 C13.6113,12.798 13.6413,12.482 13.8543,12.308 C14.0683,12.131 14.3833,12.163 14.5583,12.376 L14.8803,12.771 C15.0523,12.985 15.0183,13.3 14.8023,13.473 C14.7103,13.547 14.5993,13.583 14.4903,13.583" id="Fill-37"></path>
                    <path d="M17.6271,18.1211 C17.4561,18.1211 17.2901,18.0331 17.1961,17.8761 C17.0111,17.5631 16.8221,17.2531 16.6291,16.9441 C16.4821,16.7111 16.5521,16.4021 16.7861,16.2561 C17.0201,16.1061 17.3281,16.1791 17.4761,16.4131 C17.6741,16.7271 17.8681,17.0461 18.0571,17.3661 C18.1971,17.6041 18.1191,17.9111 17.8811,18.0521 C17.8011,18.0991 17.7131,18.1211 17.6271,18.1211 M20.0781,23.0611 C19.8811,23.0611 19.6941,22.9441 19.6151,22.7511 C19.4781,22.4141 19.3351,22.0801 19.1881,21.7491 C19.0761,21.4971 19.1891,21.2011 19.4421,21.0891 C19.6941,20.9771 19.9901,21.0911 20.1021,21.3431 C20.2531,21.6841 20.4001,22.0271 20.5411,22.3721 C20.6461,22.6281 20.5231,22.9201 20.2671,23.0241 C20.2051,23.0501 20.1411,23.0611 20.0781,23.0611 M21.7981,28.3031 C21.5741,28.3031 21.3711,28.1511 21.3141,27.9241 C21.2261,27.5711 21.1321,27.2211 21.0341,26.8711 C20.9591,26.6041 21.1141,26.3291 21.3801,26.2541 C21.6471,26.1811 21.9221,26.3351 21.9971,26.6001 C22.0981,26.9591 22.1931,27.3191 22.2841,27.6821 C22.3511,27.9491 22.1881,28.2211 21.9201,28.2881 C21.8791,28.2981 21.8381,28.3031 21.7981,28.3031" id="Fill-39"></path>
                    <path d="M22.6827,33.1338 C22.4327,33.1338 22.2167,32.9468 22.1867,32.6918 L22.1247,32.1988 C22.0897,31.9248 22.2837,31.6748 22.5577,31.6388 C22.8287,31.5948 23.0817,31.7968 23.1177,32.0708 L23.1797,32.5758 C23.2117,32.8498 23.0157,33.0988 22.7417,33.1308 C22.7217,33.1328 22.7017,33.1338 22.6827,33.1338" id="Fill-41"></path>
                    <path d="M7.3326,2 C7.0566,2 6.8326,1.776 6.8326,1.5 L6.8326,0.5 C6.8326,0.224 7.0566,0 7.3326,0 C7.6086,0 7.8326,0.224 7.8326,0.5 L7.8326,1.5 C7.8326,1.776 7.6086,2 7.3326,2 M7.3326,7 C7.0566,7 6.8326,6.776 6.8326,6.5 L6.8326,5.5 C6.8326,5.224 7.0566,5 7.3326,5 C7.6086,5 7.8326,5.224 7.8326,5.5 L7.8326,6.5 C7.8326,6.776 7.6086,7 7.3326,7 M7.3326,12 C7.0566,12 6.8326,11.776 6.8326,11.5 L6.8326,10.5 C6.8326,10.224 7.0566,10 7.3326,10 C7.6086,10 7.8326,10.224 7.8326,10.5 L7.8326,11.5 C7.8326,11.776 7.6086,12 7.3326,12 M7.3326,17 C7.0566,17 6.8326,16.776 6.8326,16.5 L6.8326,15.5 C6.8326,15.224 7.0566,15 7.3326,15 C7.6086,15 7.8326,15.224 7.8326,15.5 L7.8326,16.5 C7.8326,16.776 7.6086,17 7.3326,17 M7.3326,22 C7.0566,22 6.8326,21.776 6.8326,21.5 L6.8326,20.5 C6.8326,20.224 7.0566,20 7.3326,20 C7.6086,20 7.8326,20.224 7.8326,20.5 L7.8326,21.5 C7.8326,21.776 7.6086,22 7.3326,22 M7.3326,27 C7.0566,27 6.8326,26.776 6.8326,26.5 L6.8326,25.5 C6.8326,25.224 7.0566,25 7.3326,25 C7.6086,25 7.8326,25.224 7.8326,25.5 L7.8326,26.5 C7.8326,26.776 7.6086,27 7.3326,27 M7.3326,32 C7.0566,32 6.8326,31.776 6.8326,31.5 L6.8326,30.5 C6.8326,30.224 7.0566,30 7.3326,30 C7.6086,30 7.8326,30.224 7.8326,30.5 L7.8326,31.5 C7.8326,31.776 7.6086,32 7.3326,32 M7.3326,37 C7.0566,37 6.8326,36.776 6.8326,36.5 L6.8326,35.5 C6.8326,35.224 7.0566,35 7.3326,35 C7.6086,35 7.8326,35.224 7.8326,35.5 L7.8326,36.5 C7.8326,36.776 7.6086,37 7.3326,37 M7.3326,42 C7.0566,42 6.8326,41.776 6.8326,41.5 L6.8326,40.5 C6.8326,40.224 7.0566,40 7.3326,40 C7.6086,40 7.8326,40.224 7.8326,40.5 L7.8326,41.5 C7.8326,41.776 7.6086,42 7.3326,42 M7.3326,47 C7.0566,47 6.8326,46.776 6.8326,46.5 L6.8326,45.5 C6.8326,45.224 7.0566,45 7.3326,45 C7.6086,45 7.8326,45.224 7.8326,45.5 L7.8326,46.5 C7.8326,46.776 7.6086,47 7.3326,47 M7.3326,52 C7.0566,52 6.8326,51.776 6.8326,51.5 L6.8326,50.5 C6.8326,50.224 7.0566,50 7.3326,50 C7.6086,50 7.8326,50.224 7.8326,50.5 L7.8326,51.5 C7.8326,51.776 7.6086,52 7.3326,52 M7.3326,57 C7.0566,57 6.8326,56.776 6.8326,56.5 L6.8326,55.5 C6.8326,55.224 7.0566,55 7.3326,55 C7.6086,55 7.8326,55.224 7.8326,55.5 L7.8326,56.5 C7.8326,56.776 7.6086,57 7.3326,57 M7.3326,62 C7.0566,62 6.8326,61.776 6.8326,61.5 L6.8326,60.5 C6.8326,60.224 7.0566,60 7.3326,60 C7.6086,60 7.8326,60.224 7.8326,60.5 L7.8326,61.5 C7.8326,61.776 7.6086,62 7.3326,62 M7.3326,67 C7.0566,67 6.8326,66.776 6.8326,66.5 L6.8326,65.5 C6.8326,65.224 7.0566,65 7.3326,65 C7.6086,65 7.8326,65.224 7.8326,65.5 L7.8326,66.5 C7.8326,66.776 7.6086,67 7.3326,67 M7.3326,72 C7.0566,72 6.8326,71.776 6.8326,71.5 L6.8326,70.5 C6.8326,70.224 7.0566,70 7.3326,70 C7.6086,70 7.8326,70.224 7.8326,70.5 L7.8326,71.5 C7.8326,71.776 7.6086,72 7.3326,72 M7.3326,77 C7.0566,77 6.8326,76.776 6.8326,76.5 L6.8326,75.5 C6.8326,75.224 7.0566,75 7.3326,75 C7.6086,75 7.8326,75.224 7.8326,75.5 L7.8326,76.5 C7.8326,76.776 7.6086,77 7.3326,77 M7.3326,82 C7.0566,82 6.8326,81.776 6.8326,81.5 L6.8326,80.5 C6.8326,80.224 7.0566,80 7.3326,80 C7.6086,80 7.8326,80.224 7.8326,80.5 L7.8326,81.5 C7.8326,81.776 7.6086,82 7.3326,82 M7.3326,87 C7.0566,87 6.8326,86.776 6.8326,86.5 L6.8326,85.5 C6.8326,85.224 7.0566,85 7.3326,85 C7.6086,85 7.8326,85.224 7.8326,85.5 L7.8326,86.5 C7.8326,86.776 7.6086,87 7.3326,87 M7.3326,92 C7.0566,92 6.8326,91.776 6.8326,91.5 L6.8326,90.5 C6.8326,90.224 7.0566,90 7.3326,90 C7.6086,90 7.8326,90.224 7.8326,90.5 L7.8326,91.5 C7.8326,91.776 7.6086,92 7.3326,92 M7.3326,97 C7.0566,97 6.8326,96.776 6.8326,96.5 L6.8326,95.5 C6.8326,95.224 7.0566,95 7.3326,95 C7.6086,95 7.8326,95.224 7.8326,95.5 L7.8326,96.5 C7.8326,96.776 7.6086,97 7.3326,97 M7.3326,102 C7.0566,102 6.8326,101.776 6.8326,101.5 L6.8326,100.5 C6.8326,100.224 7.0566,100 7.3326,100 C7.6086,100 7.8326,100.224 7.8326,100.5 L7.8326,101.5 C7.8326,101.776 7.6086,102 7.3326,102 M7.3326,107 C7.0566,107 6.8326,106.776 6.8326,106.5 L6.8326,105.5 C6.8326,105.224 7.0566,105 7.3326,105 C7.6086,105 7.8326,105.224 7.8326,105.5 L7.8326,106.5 C7.8326,106.776 7.6086,107 7.3326,107" id="Fill-43"></path>
                    <path d="M20.9459,32.4443 C20.6699,32.4443 20.4459,32.2203 20.4459,31.9443 L20.4459,30.9443 C20.4459,30.6683 20.6699,30.4443 20.9459,30.4443 C21.2219,30.4443 21.4459,30.6683 21.4459,30.9443 L21.4459,31.9443 C21.4459,32.2203 21.2219,32.4443 20.9459,32.4443 M20.9459,37.4443 C20.6699,37.4443 20.4459,37.2203 20.4459,36.9443 L20.4459,35.9443 C20.4459,35.6683 20.6699,35.4443 20.9459,35.4443 C21.2219,35.4443 21.4459,35.6683 21.4459,35.9443 L21.4459,36.9443 C21.4459,37.2203 21.2219,37.4443 20.9459,37.4443 M20.9459,42.4443 C20.6699,42.4443 20.4459,42.2203 20.4459,41.9443 L20.4459,40.9443 C20.4459,40.6683 20.6699,40.4443 20.9459,40.4443 C21.2219,40.4443 21.4459,40.6683 21.4459,40.9443 L21.4459,41.9443 C21.4459,42.2203 21.2219,42.4443 20.9459,42.4443 M20.9459,47.4443 C20.6699,47.4443 20.4459,47.2203 20.4459,46.9443 L20.4459,45.9443 C20.4459,45.6683 20.6699,45.4443 20.9459,45.4443 C21.2219,45.4443 21.4459,45.6683 21.4459,45.9443 L21.4459,46.9443 C21.4459,47.2203 21.2219,47.4443 20.9459,47.4443 M20.9459,52.4443 C20.6699,52.4443 20.4459,52.2203 20.4459,51.9443 L20.4459,50.9443 C20.4459,50.6683 20.6699,50.4443 20.9459,50.4443 C21.2219,50.4443 21.4459,50.6683 21.4459,50.9443 L21.4459,51.9443 C21.4459,52.2203 21.2219,52.4443 20.9459,52.4443 M20.9459,57.4443 C20.6699,57.4443 20.4459,57.2203 20.4459,56.9443 L20.4459,55.9443 C20.4459,55.6683 20.6699,55.4443 20.9459,55.4443 C21.2219,55.4443 21.4459,55.6683 21.4459,55.9443 L21.4459,56.9443 C21.4459,57.2203 21.2219,57.4443 20.9459,57.4443 M20.9459,62.4443 C20.6699,62.4443 20.4459,62.2203 20.4459,61.9443 L20.4459,60.9443 C20.4459,60.6683 20.6699,60.4443 20.9459,60.4443 C21.2219,60.4443 21.4459,60.6683 21.4459,60.9443 L21.4459,61.9443 C21.4459,62.2203 21.2219,62.4443 20.9459,62.4443 M20.9459,67.4443 C20.6699,67.4443 20.4459,67.2203 20.4459,66.9443 L20.4459,65.9443 C20.4459,65.6683 20.6699,65.4443 20.9459,65.4443 C21.2219,65.4443 21.4459,65.6683 21.4459,65.9443 L21.4459,66.9443 C21.4459,67.2203 21.2219,67.4443 20.9459,67.4443 M20.9459,72.4443 C20.6699,72.4443 20.4459,72.2203 20.4459,71.9443 L20.4459,70.9443 C20.4459,70.6683 20.6699,70.4443 20.9459,70.4443 C21.2219,70.4443 21.4459,70.6683 21.4459,70.9443 L21.4459,71.9443 C21.4459,72.2203 21.2219,72.4443 20.9459,72.4443" id="Fill-45"></path>
                    <path d="M1.5436,5.1982 C1.4526,5.1982 1.3606,5.1742 1.2776,5.1212 L0.4316,4.5892 C0.1976,4.4422 0.1266,4.1342 0.2736,3.9002 C0.4216,3.6672 0.7306,3.5942 0.9636,3.7432 L1.8106,4.2752 C2.0436,4.4222 2.1146,4.7302 1.9676,4.9642 C1.8726,5.1152 1.7096,5.1982 1.5436,5.1982 M5.7756,7.8612 C5.6846,7.8612 5.5926,7.8372 5.5096,7.7842 L4.6636,7.2512 C4.4296,7.1032 4.3596,6.7952 4.5066,6.5612 C4.6536,6.3292 4.9626,6.2582 5.1966,6.4052 L6.0426,6.9382 C6.2756,7.0862 6.3466,7.3942 6.1986,7.6282 C6.1046,7.7782 5.9416,7.8612 5.7756,7.8612 M10.0076,10.5232 C9.9176,10.5232 9.8246,10.4992 9.7426,10.4462 L8.8956,9.9142 C8.6616,9.7672 8.5916,9.4592 8.7386,9.2252 C8.8856,8.9922 9.1946,8.9202 9.4276,9.0682 L10.2746,9.6002 C10.5086,9.7472 10.5786,10.0552 10.4316,10.2892 C10.3366,10.4402 10.1736,10.5232 10.0076,10.5232 M14.2396,13.1852 C14.1486,13.1852 14.0566,13.1612 13.9746,13.1082 L13.1276,12.5762 C12.8946,12.4292 12.8236,12.1212 12.9706,11.8862 C13.1186,11.6542 13.4276,11.5822 13.6606,11.7302 L14.5066,12.2622 C14.7406,12.4092 14.8106,12.7182 14.6636,12.9522 C14.5686,13.1022 14.4056,13.1852 14.2396,13.1852 M18.4726,15.8472 C18.3816,15.8472 18.2896,15.8232 18.2066,15.7702 L17.3606,15.2382 C17.1266,15.0922 17.0566,14.7832 17.2036,14.5492 C17.3506,14.3162 17.6596,14.2442 17.8926,14.3922 L18.7386,14.9252 C18.9726,15.0712 19.0436,15.3802 18.8966,15.6142 C18.8006,15.7642 18.6386,15.8472 18.4726,15.8472 M22.7046,18.5112 C22.6136,18.5112 22.5216,18.4862 22.4386,18.4332 L21.5916,17.9002 C21.3586,17.7542 21.2886,17.4442 21.4356,17.2112 C21.5836,16.9782 21.8926,16.9072 22.1256,17.0542 L22.9716,17.5882 C23.2056,17.7342 23.2756,18.0442 23.1276,18.2772 C23.0336,18.4272 22.8706,18.5112 22.7046,18.5112 M26.9366,21.1732 C26.8456,21.1732 26.7536,21.1482 26.6706,21.0952 L25.8246,20.5632 C25.5906,20.4172 25.5206,20.1082 25.6676,19.8742 C25.8156,19.6412 26.1246,19.5702 26.3566,19.7182 L27.2036,20.2502 C27.4376,20.3962 27.5076,20.7052 27.3606,20.9392 C27.2656,21.0902 27.1026,21.1732 26.9366,21.1732 M31.1686,23.8352 C31.0786,23.8352 30.9856,23.8102 30.9036,23.7582 L30.0566,23.2252 C29.8226,23.0792 29.7526,22.7702 29.8996,22.5372 C30.0476,22.3032 30.3556,22.2302 30.5886,22.3802 L31.4356,22.9122 C31.6696,23.0582 31.7396,23.3672 31.5926,23.6002 C31.4976,23.7522 31.3356,23.8352 31.1686,23.8352 M35.4016,26.4972 C35.3106,26.4972 35.2186,26.4722 35.1356,26.4202 L34.2896,25.8872 C34.0556,25.7412 33.9846,25.4322 34.1316,25.1992 C34.2786,24.9662 34.5886,24.8932 34.8216,25.0422 L35.6686,25.5742 C35.9016,25.7202 35.9726,26.0292 35.8256,26.2622 C35.7306,26.4142 35.5676,26.4972 35.4016,26.4972 M39.6336,29.1602 C39.5426,29.1602 39.4506,29.1352 39.3676,29.0832 L38.5216,28.5502 C38.2876,28.4022 38.2176,28.0942 38.3646,27.8602 C38.5126,27.6282 38.8206,27.5562 39.0546,27.7042 L39.9006,28.2372 C40.1336,28.3852 40.2046,28.6932 40.0566,28.9272 C39.9616,29.0772 39.7996,29.1602 39.6336,29.1602 M43.8656,31.8222 C43.7746,31.8222 43.6826,31.7982 43.6006,31.7452 L42.7536,31.2132 C42.5196,31.0662 42.4496,30.7582 42.5966,30.5242 C42.7446,30.2912 43.0536,30.2192 43.2856,30.3672 L44.1326,30.8992 C44.3666,31.0462 44.4366,31.3542 44.2896,31.5882 C44.1946,31.7392 44.0316,31.8222 43.8656,31.8222 M48.0976,34.4842 C48.0066,34.4842 47.9146,34.4602 47.8326,34.4072 L46.9856,33.8752 C46.7516,33.7282 46.6816,33.4202 46.8286,33.1852 C46.9756,32.9532 47.2856,32.8812 47.5186,33.0292 L48.3646,33.5612 C48.5986,33.7082 48.6686,34.0162 48.5216,34.2512 C48.4266,34.4012 48.2636,34.4842 48.0976,34.4842 M52.3306,37.1462 C52.2396,37.1462 52.1476,37.1222 52.0646,37.0692 L51.2186,36.5372 C50.9846,36.3902 50.9146,36.0822 51.0616,35.8472 C51.2096,35.6152 51.5176,35.5442 51.7506,35.6912 L52.5966,36.2232 C52.8306,36.3702 52.9006,36.6782 52.7536,36.9132 C52.6586,37.0632 52.4966,37.1462 52.3306,37.1462 M56.5626,39.8092 C56.4716,39.8092 56.3796,39.7852 56.2966,39.7322 L55.4496,39.1992 C55.2166,39.0522 55.1466,38.7432 55.2936,38.5102 C55.4406,38.2772 55.7486,38.2062 55.9826,38.3532 L56.8296,38.8862 C57.0636,39.0332 57.1336,39.3432 56.9856,39.5762 C56.8916,39.7262 56.7286,39.8092 56.5626,39.8092 M60.7946,42.4712 C60.7036,42.4712 60.6116,42.4472 60.5286,42.3942 L59.6826,41.8622 C59.4486,41.7162 59.3786,41.4072 59.5256,41.1732 C59.6726,40.9412 59.9816,40.8682 60.2146,41.0162 L61.0616,41.5492 C61.2946,41.6952 61.3656,42.0042 61.2186,42.2382 C61.1236,42.3882 60.9606,42.4712 60.7946,42.4712 M65.0266,45.1342 C64.9366,45.1342 64.8436,45.1092 64.7616,45.0562 L63.9146,44.5242 C63.6806,44.3782 63.6106,44.0692 63.7576,43.8362 C63.9046,43.6012 64.2146,43.5302 64.4466,43.6782 L65.2936,44.2112 C65.5276,44.3572 65.5976,44.6662 65.4506,44.8992 C65.3556,45.0512 65.1926,45.1342 65.0266,45.1342 M69.2596,47.7962 C69.1686,47.7962 69.0766,47.7712 68.9936,47.7192 L68.1476,47.1862 C67.9136,47.0402 67.8426,46.7312 67.9896,46.4982 C68.1376,46.2642 68.4466,46.1922 68.6796,46.3412 L69.5256,46.8732 C69.7596,47.0192 69.8306,47.3282 69.6836,47.5612 C69.5876,47.7132 69.4256,47.7962 69.2596,47.7962 M73.4916,50.4592 C73.3996,50.4592 73.3086,50.4342 73.2256,50.3822 L72.3786,49.8482 C72.1456,49.7012 72.0756,49.3922 72.2226,49.1592 C72.3706,48.9272 72.6786,48.8552 72.9126,49.0032 L73.7586,49.5362 C73.9916,49.6832 74.0626,49.9922 73.9146,50.2252 C73.8196,50.3762 73.6576,50.4592 73.4916,50.4592 M77.7236,53.1212 C77.6326,53.1212 77.5406,53.0962 77.4586,53.0442 L76.6116,52.5112 C76.3776,52.3652 76.3076,52.0562 76.4546,51.8232 C76.6016,51.5892 76.9116,51.5172 77.1436,51.6662 L77.9906,52.1982 C78.2246,52.3442 78.2946,52.6532 78.1476,52.8862 C78.0526,53.0382 77.8896,53.1212 77.7236,53.1212 M81.9556,55.7832 C81.8646,55.7832 81.7726,55.7592 81.6896,55.7062 L80.8436,55.1742 C80.6096,55.0272 80.5396,54.7192 80.6866,54.4842 C80.8346,54.2522 81.1436,54.1792 81.3766,54.3282 L82.2226,54.8602 C82.4566,55.0072 82.5266,55.3152 82.3796,55.5502 C82.2846,55.7002 82.1216,55.7832 81.9556,55.7832 M86.1886,58.4452 C86.0976,58.4452 86.0046,58.4212 85.9226,58.3682 L85.0766,57.8362 C84.8426,57.6892 84.7726,57.3812 84.9186,57.1462 C85.0666,56.9142 85.3756,56.8422 85.6086,56.9902 L86.4546,57.5222 C86.6886,57.6692 86.7586,57.9772 86.6116,58.2122 C86.5166,58.3622 86.3546,58.4452 86.1886,58.4452" id="Fill-47"></path>
                    <path d="M22.7174,33.3174 C22.6274,33.3174 22.5354,33.2934 22.4534,33.2424 L21.6044,32.7134 C21.3704,32.5674 21.2984,32.2594 21.4444,32.0254 C21.5904,31.7914 21.8994,31.7184 22.1334,31.8644 L22.9824,32.3924 C23.2164,32.5394 23.2884,32.8464 23.1424,33.0814 C23.0474,33.2334 22.8844,33.3174 22.7174,33.3174 M26.9624,35.9604 C26.8714,35.9604 26.7804,35.9354 26.6984,35.8844 L25.8494,35.3564 C25.6144,35.2104 25.5434,34.9024 25.6894,34.6684 C25.8344,34.4334 26.1444,34.3624 26.3774,34.5064 L27.2264,35.0354 C27.4614,35.1814 27.5324,35.4894 27.3864,35.7234 C27.2924,35.8764 27.1294,35.9604 26.9624,35.9604 M31.2074,38.6014 C31.1164,38.6014 31.0254,38.5774 30.9434,38.5264 L30.0944,37.9984 C29.8604,37.8514 29.7884,37.5444 29.9344,37.3094 C30.0794,37.0754 30.3894,37.0034 30.6224,37.1484 L31.4714,37.6764 C31.7064,37.8234 31.7784,38.1304 31.6324,38.3654 C31.5374,38.5174 31.3744,38.6014 31.2074,38.6014 M35.4514,41.2444 C35.3614,41.2444 35.2704,41.2194 35.1884,41.1694 L34.3394,40.6404 C34.1044,40.4944 34.0324,40.1864 34.1784,39.9524 C34.3244,39.7174 34.6334,39.6464 34.8674,39.7914 L35.7164,40.3194 C35.9504,40.4654 36.0224,40.7734 35.8764,41.0074 C35.7814,41.1604 35.6184,41.2444 35.4514,41.2444 M39.6964,43.8864 C39.6064,43.8864 39.5154,43.8624 39.4324,43.8104 L38.5834,43.2814 C38.3494,43.1354 38.2784,42.8274 38.4244,42.5924 C38.5704,42.3574 38.8784,42.2864 39.1134,42.4334 L39.9624,42.9624 C40.1964,43.1084 40.2674,43.4174 40.1214,43.6514 C40.0274,43.8034 39.8634,43.8864 39.6964,43.8864 M43.9414,46.5284 C43.8514,46.5284 43.7594,46.5044 43.6774,46.4534 L42.8284,45.9244 C42.5944,45.7784 42.5224,45.4704 42.6684,45.2364 C42.8144,45.0024 43.1234,44.9304 43.3574,45.0754 L44.2064,45.6034 C44.4404,45.7504 44.5124,46.0574 44.3664,46.2924 C44.2714,46.4444 44.1084,46.5284 43.9414,46.5284 M48.1864,49.1714 C48.0964,49.1714 48.0054,49.1464 47.9234,49.0954 L47.0734,48.5674 C46.8394,48.4214 46.7674,48.1134 46.9134,47.8794 C47.0594,47.6444 47.3684,47.5734 47.6024,47.7174 L48.4514,48.2464 C48.6854,48.3924 48.7574,48.7004 48.6114,48.9344 C48.5164,49.0874 48.3534,49.1714 48.1864,49.1714 M52.4314,51.8124 C52.3414,51.8124 52.2494,51.7884 52.1674,51.7374 L51.3184,51.2094 C51.0844,51.0624 51.0124,50.7544 51.1584,50.5204 C51.3034,50.2864 51.6124,50.2144 51.8464,50.3594 L52.6964,50.8874 C52.9304,51.0344 53.0024,51.3414 52.8564,51.5764 C52.7614,51.7284 52.5984,51.8124 52.4314,51.8124" id="Fill-49"></path>
                    <path d="M85.9845,51.002 C85.8165,51.002 85.6515,50.917 85.5575,50.763 C85.4135,50.527 85.4875,50.22 85.7225,50.075 L86.5755,49.553 C86.8115,49.408 87.1195,49.483 87.2635,49.719 C87.4075,49.954 87.3335,50.262 87.0985,50.406 L86.2455,50.929 C86.1635,50.979 86.0735,51.002 85.9845,51.002 M81.7205,53.612 C81.5515,53.612 81.3875,53.527 81.2935,53.373 C81.1495,53.138 81.2235,52.83 81.4595,52.686 L82.3125,52.164 C82.5475,52.02 82.8565,52.094 82.9995,52.33 C83.1435,52.565 83.0695,52.873 82.8335,53.018 L81.9805,53.539 C81.8995,53.589 81.8095,53.612 81.7205,53.612 M77.4565,56.224 C77.2875,56.224 77.1235,56.139 77.0295,55.985 C76.8845,55.749 76.9595,55.441 77.1945,55.297 L78.0475,54.774 C78.2835,54.63 78.5905,54.705 78.7345,54.94 C78.8795,55.176 78.8045,55.483 78.5695,55.628 L77.7165,56.15 C77.6355,56.2 77.5455,56.224 77.4565,56.224 M73.1915,58.834 C73.0235,58.834 72.8595,58.749 72.7645,58.595 C72.6205,58.359 72.6945,58.052 72.9295,57.907 L73.7825,57.385 C74.0195,57.241 74.3265,57.315 74.4705,57.551 C74.6145,57.786 74.5405,58.094 74.3055,58.238 L73.4525,58.761 C73.3705,58.811 73.2805,58.834 73.1915,58.834 M68.9275,61.444 C68.7585,61.444 68.5945,61.359 68.5005,61.205 C68.3565,60.97 68.4305,60.662 68.6665,60.518 L69.5185,59.996 C69.7535,59.853 70.0615,59.927 70.2065,60.162 C70.3505,60.398 70.2765,60.705 70.0405,60.85 L69.1875,61.371 C69.1065,61.421 69.0165,61.444 68.9275,61.444 M64.6625,64.056 C64.4945,64.056 64.3305,63.971 64.2355,63.816 C64.0915,63.581 64.1655,63.273 64.4015,63.129 L65.2545,62.606 C65.4905,62.463 65.7975,62.537 65.9415,62.773 C66.0865,63.008 66.0115,63.315 65.7765,63.46 L64.9235,63.982 C64.8415,64.032 64.7515,64.056 64.6625,64.056 M60.3985,66.666 C60.2305,66.666 60.0665,66.581 59.9715,66.427 C59.8275,66.191 59.9015,65.884 60.1365,65.739 L60.9895,65.217 C61.2265,65.072 61.5335,65.147 61.6775,65.383 C61.8215,65.618 61.7475,65.926 61.5125,66.07 L60.6595,66.593 C60.5775,66.643 60.4875,66.666 60.3985,66.666 M56.1345,69.276 C55.9655,69.276 55.8015,69.191 55.7075,69.037 C55.5635,68.802 55.6375,68.494 55.8735,68.35 L56.7255,67.828 C56.9615,67.684 57.2685,67.759 57.4135,67.994 C57.5575,68.23 57.4835,68.537 57.2475,68.682 L56.3945,69.203 C56.3135,69.253 56.2235,69.276 56.1345,69.276 M51.8695,71.887 C51.7015,71.887 51.5365,71.802 51.4425,71.648 C51.2985,71.412 51.3725,71.105 51.6085,70.96 L52.4615,70.439 C52.6975,70.294 53.0055,70.369 53.1495,70.605 C53.2935,70.84 53.2185,71.148 52.9835,71.292 L52.1305,71.814 C52.0485,71.863 51.9585,71.887 51.8695,71.887 M47.6055,74.498 C47.4375,74.498 47.2735,74.413 47.1785,74.259 C47.0345,74.023 47.1085,73.716 47.3435,73.571 L48.1965,73.049 C48.4325,72.904 48.7405,72.98 48.8845,73.215 C49.0285,73.45 48.9545,73.758 48.7195,73.902 L47.8665,74.425 C47.7845,74.475 47.6945,74.498 47.6055,74.498 M43.3415,77.108 C43.1725,77.108 43.0085,77.023 42.9145,76.87 C42.7705,76.634 42.8445,76.326 43.0795,76.182 L43.9325,75.659 C44.1685,75.516 44.4755,75.591 44.6195,75.824 C44.7645,76.061 44.6905,76.368 44.4545,76.513 L43.6025,77.035 C43.5205,77.085 43.4305,77.108 43.3415,77.108 M39.0765,79.719 C38.9085,79.719 38.7435,79.634 38.6495,79.48 C38.5055,79.244 38.5795,78.937 38.8155,78.792 L39.6685,78.271 C39.9055,78.127 40.2125,78.201 40.3565,78.437 C40.5005,78.672 40.4255,78.98 40.1905,79.124 L39.3375,79.646 C39.2555,79.695 39.1655,79.719 39.0765,79.719 M34.8125,82.33 C34.6445,82.33 34.4805,82.245 34.3855,82.091 C34.2415,81.856 34.3155,81.548 34.5505,81.403 L35.4035,80.881 C35.6395,80.736 35.9465,80.812 36.0915,81.047 C36.2355,81.282 36.1615,81.59 35.9265,81.734 L35.0735,82.257 C34.9915,82.307 34.9015,82.33 34.8125,82.33 M30.5485,84.94 C30.3805,84.94 30.2155,84.856 30.1215,84.702 C29.9775,84.466 30.0515,84.158 30.2865,84.014 L31.1395,83.491 C31.3755,83.347 31.6825,83.422 31.8265,83.656 C31.9715,83.893 31.8975,84.2 31.6615,84.345 L30.8095,84.867 C30.7275,84.917 30.6375,84.94 30.5485,84.94 M26.2835,87.551 C26.1155,87.551 25.9505,87.466 25.8565,87.312 C25.7125,87.076 25.7865,86.769 26.0225,86.624 L26.8755,86.103 C27.1115,85.958 27.4195,86.032 27.5635,86.269 C27.7075,86.504 27.6325,86.812 27.3975,86.956 L26.5445,87.478 C26.4625,87.527 26.3725,87.551 26.2835,87.551 M22.0195,90.162 C21.8515,90.162 21.6875,90.077 21.5925,89.924 C21.4485,89.688 21.5225,89.38 21.7575,89.235 L22.6105,88.713 C22.8465,88.568 23.1535,88.644 23.2975,88.878 C23.4425,89.114 23.3685,89.422 23.1325,89.566 L22.2805,90.089 C22.1985,90.139 22.1085,90.162 22.0195,90.162 M17.7555,92.773 C17.5865,92.773 17.4225,92.688 17.3285,92.533 C17.1835,92.298 17.2575,91.99 17.4935,91.846 L18.3465,91.323 C18.5825,91.18 18.8895,91.254 19.0335,91.489 C19.1785,91.725 19.1045,92.032 18.8685,92.177 L18.0155,92.699 C17.9345,92.749 17.8435,92.773 17.7555,92.773 M13.4905,95.383 C13.3225,95.383 13.1585,95.298 13.0645,95.144 C12.9195,94.908 12.9935,94.601 13.2295,94.456 L14.0825,93.934 C14.3185,93.79 14.6255,93.864 14.7695,94.1 C14.9145,94.335 14.8395,94.643 14.6045,94.787 L13.7515,95.31 C13.6705,95.359 13.5795,95.383 13.4905,95.383 M9.2265,97.993 C9.0585,97.993 8.8945,97.908 8.7995,97.754 C8.6555,97.519 8.7295,97.211 8.9655,97.066 L9.8175,96.545 C10.0525,96.401 10.3605,96.476 10.5055,96.711 C10.6495,96.946 10.5755,97.254 10.3395,97.398 L9.4865,97.92 C9.4055,97.97 9.3155,97.993 9.2265,97.993 M4.9625,100.605 C4.7935,100.605 4.6295,100.52 4.5355,100.365 C4.3905,100.13 4.4645,99.822 4.7005,99.678 L5.5535,99.155 C5.7905,99.011 6.0965,99.085 6.2405,99.321 C6.3855,99.557 6.3115,99.864 6.0755,100.009 L5.2225,100.531 C5.1415,100.581 5.0505,100.605 4.9625,100.605 M0.6975,103.215 C0.5295,103.215 0.3655,103.13 0.2715,102.976 C0.1265,102.74 0.2005,102.433 0.4365,102.288 L1.2895,101.766 C1.5265,101.621 1.8325,101.695 1.9765,101.932 C2.1215,102.167 2.0465,102.475 1.8115,102.619 L0.9585,103.142 C0.8775,103.191 0.7865,103.215 0.6975,103.215" id="Fill-51"></path>
                    <path d="M51.7193,57.2734 C51.5513,57.2734 51.3863,57.1884 51.2923,57.0344 C51.1483,56.7984 51.2223,56.4914 51.4583,56.3464 L52.3113,55.8254 C52.5463,55.6814 52.8543,55.7554 52.9983,55.9914 C53.1423,56.2264 53.0683,56.5344 52.8323,56.6784 L51.9793,57.2004 C51.8983,57.2504 51.8083,57.2734 51.7193,57.2734 M47.4553,59.8844 C47.2863,59.8844 47.1223,59.7994 47.0283,59.6464 C46.8843,59.4104 46.9583,59.1024 47.1933,58.9584 L48.0463,58.4354 C48.2823,58.2924 48.5893,58.3674 48.7333,58.6004 C48.8783,58.8364 48.8033,59.1444 48.5683,59.2894 L47.7163,59.8114 C47.6343,59.8614 47.5443,59.8844 47.4553,59.8844 M43.1903,62.4954 C43.0223,62.4954 42.8573,62.4104 42.7633,62.2554 C42.6193,62.0204 42.6933,61.7124 42.9293,61.5684 L43.7823,61.0464 C44.0183,60.9034 44.3263,60.9774 44.4693,61.2124 C44.6143,61.4484 44.5393,61.7554 44.3033,61.9004 L43.4503,62.4214 C43.3693,62.4714 43.2793,62.4954 43.1903,62.4954 M38.9263,65.1064 C38.7583,65.1064 38.5943,65.0214 38.4993,64.8674 C38.3553,64.6314 38.4293,64.3244 38.6643,64.1794 L39.5173,63.6574 C39.7543,63.5124 40.0613,63.5874 40.2053,63.8234 C40.3493,64.0584 40.2753,64.3664 40.0403,64.5104 L39.1873,65.0334 C39.1053,65.0834 39.0153,65.1064 38.9263,65.1064 M34.6623,67.7164 C34.4933,67.7164 34.3293,67.6314 34.2353,67.4784 C34.0913,67.2424 34.1653,66.9344 34.4003,66.7904 L35.2533,66.2674 C35.4903,66.1234 35.7963,66.1984 35.9403,66.4324 C36.0853,66.6694 36.0113,66.9764 35.7753,67.1214 L34.9233,67.6434 C34.8413,67.6934 34.7513,67.7164 34.6623,67.7164 M30.3983,70.3274 C30.2293,70.3274 30.0653,70.2424 29.9703,70.0874 C29.8263,69.8524 29.9013,69.5444 30.1363,69.4004 L30.9893,68.8784 C31.2243,68.7344 31.5323,68.8084 31.6773,69.0444 C31.8213,69.2804 31.7463,69.5874 31.5113,69.7324 L30.6583,70.2534 C30.5773,70.3034 30.4873,70.3274 30.3983,70.3274 M26.1333,72.9384 C25.9653,72.9384 25.8013,72.8534 25.7063,72.6994 C25.5623,72.4634 25.6363,72.1564 25.8713,72.0114 L26.7243,71.4894 C26.9613,71.3444 27.2683,71.4194 27.4123,71.6554 C27.5563,71.8904 27.4823,72.1984 27.2473,72.3424 L26.3943,72.8654 C26.3123,72.9154 26.2223,72.9384 26.1333,72.9384 M21.8693,75.5484 C21.7003,75.5484 21.5363,75.4634 21.4423,75.3094 C21.2983,75.0744 21.3723,74.7664 21.6073,74.6224 L22.4603,74.0994 C22.6973,73.9564 23.0043,74.0304 23.1483,74.2654 C23.2923,74.5014 23.2183,74.8084 22.9833,74.9534 L22.1303,75.4754 C22.0483,75.5254 21.9583,75.5484 21.8693,75.5484" id="Fill-53"></path>
                </g>
            </g>
        </g>
    </g>
</svg>